<svg xmlns="http://www.w3.org/2000/svg" viewBox="0 0 1200 220" width="1200" height="220">
<title>SATI Pattern 01 - Flow Waves</title>
<defs>
<linearGradient id="pw1a" x1="0" y1="0" x2="1" y2="0">
<stop offset="0%" stop-color="#6366F1" stop-opacity="0"/>
<stop offset="50%" stop-color="#00A98F" stop-opacity="0.85"/>
<stop offset="100%" stop-color="#6366F1" stop-opacity="0"/>
</linearGradient>
<linearGradient id="pw1b" x1="0" y1="0" x2="1" y2="0">
<stop offset="0%" stop-color="#00A98F" stop-opacity="0"/>
<stop offset="50%" stop-color="#6366F1" stop-opacity="0.75"/>
<stop offset="100%" stop-color="#0F4C81" stop-opacity="0"/>
</linearGradient>
<linearGradient id="pw1g4" x1="0" y1="0" x2="1" y2="0">
<stop offset="0%" stop-color="#F0F7FF" stop-opacity="0"/>
<stop offset="50%" stop-color="#FCD34D" stop-opacity="0.85"/>
<stop offset="100%" stop-color="#F0F7FF" stop-opacity="0"/>
</linearGradient>
</defs>
<rect width="1200" height="220" fill="#062340"/>
<path d="M0 110 Q300 60 600 110 T1200 110" stroke="url(#pw1a)" stroke-width="1.4" fill="none"/>
<path d="M0 120 Q300 70 600 120 T1200 120" stroke="url(#pw1b)" stroke-width="1.2" fill="none" opacity="0.85"/>
<path d="M0 130 Q300 80 600 130 T1200 130" stroke="url(#pw1a)" stroke-width="1" fill="none" opacity="0.7"/>
<path d="M0 138 Q300 88 600 138 T1200 138" stroke="url(#pw1g4)" stroke-width="1.1" fill="none"/>
<path d="M0 146 Q300 96 600 146 T1200 146" stroke="url(#pw1b)" stroke-width="0.85" fill="none" opacity="0.55"/>
<path d="M0 100 Q300 150 600 100 T1200 100" stroke="url(#pw1b)" stroke-width="1" fill="none" opacity="0.5"/>
</svg>