<svg xmlns="http://www.w3.org/2000/svg" viewBox="0 0 280 450" width="280" height="450">
<title>SATI - Vector Tre Silhouette</title>
<desc>Bamboo silhouette - designer can fill with any color/pattern</desc>
<g transform="scale(0.5266, 0.5271)">
<g transform="translate(-76.186401,1005.777406) scale(0.1,-0.1)" fill="#0F4C81">
<path d="M5569 9952 c-276 -253 -606 -607 -721 -772 -112 -161 -236 -456 -251 -592 -6 -61 -9 -61 115 21 283 188 440 377 685 821 93 169 303 598 303 619 0 21 -16 9 -131 -97z"/>
<path d="M5275 9458 c-128 -210 -542 -771 -610 -828 -82 -68 195 344 469 695 163 210 222 265 141 133z"/>
<path d="M3736 9763 c-16 -580 -28 -704 -94 -953 -43 -163 -41 -178 14 -160 88 28 542 8 531 -24 -14 -45 -339 -58 -485 -20 -95 24 -107 11 -78 -87 16 -52 50 -212 72 -337 26 -147 34 -318 39 -761 3 -239 7 -437 10 -439 3 -3 5 13 5 35 0 79 13 192 21 187 5 -3 9 -227 9 -499 0 -445 5 -553 24 -488 2 10 7 158 10 328 8 416 14 495 33 469 10 -13 13 -42 12 -94 -3 -92 9 -515 17 -587 4 -41 21 -81 25 -61 0 2 6 37 13 78 8 41 14 63 15 48 0 -15 7 -42 15 -60 8 -18 24 -67 37 -108 12 -41 26 -79 30 -85 3 -5 10 -37 14 -70 4 -33 13 -72 21 -87 8 -15 14 -40 14 -57 0 -35 9 -61 21 -61 5 0 9 7 9 15 0 51 19 1 26 -67 l9 -82 59 -11 c79 -13 82 -30 9 -51 -146 -44 -531 -2 -406 44 l28 10 -30 1 c-56 2 -75 25 -75 91 0 69 -15 87 -28 33 -5 -21 -22 -87 -37 -148 -40 -155 -41 -220 -6 -363 16 -64 38 -175 50 -247 32 -194 27 -180 55 -158 159 122 387 289 524 384 149 103 162 153 98 379 -63 224 -74 341 -86 910 -11 515 0 1399 19 1490 5 25 15 79 21 120 7 41 26 129 43 195 37 148 45 264 22 332 -70 206 -93 394 -105 878 -5 215 -10 391 -10 393 0 1 -46 1 -102 0 l-103 -3 1 -45 c5 -306 19 -670 27 -690 l10 -25 7 25 c5 14 9 45 10 70 l1 45 21 -45 c11 -25 24 -53 29 -62 5 -10 9 -26 9 -37 0 -11 9 -40 20 -66 11 -26 23 -65 26 -88 3 -23 14 -71 24 -107 10 -36 21 -77 24 -92 4 -17 11 -25 19 -22 24 9 49 -112 29 -142 -15 -24 -299 -41 -455 -28 -90 8 -103 24 -19 24 82 0 80 -3 69 138 -8 89 -7 161 1 255 6 73 14 168 18 213 11 153 31 142 40 -22 21 -364 57 33 59 641 l0 60 -146 3 -146 3 -7 -258z"/>
<path d="M5965 8909 c-33 -4 -98 -13 -145 -19 -589 -76 -830 -155 -1077 -352 -78 -62 -78 -62 5 -78 170 -32 480 26 716 134 31 14 59 26 62 26 8 0 463 229 512 257 71 42 55 50 -73 32z"/>
<path d="M1050 7834 c0 -44 396 -789 517 -974 127 -194 559 -587 600 -546 37 36 -128 450 -253 636 -147 220 -864 953 -864 884z"/>
<path d="M2317 7693 c-4 -3 -7 -56 -7 -117 0 -429 -30 -680 -107 -909 -33 -95 -30 -99 67 -86 132 16 446 7 467 -15 50 -50 -349 -63 -506 -17 -57 17 -63 0 -33 -84 19 -51 62 -225 82 -325 19 -98 30 -329 30 -630 0 -173 4 -301 10 -310 7 -10 10 8 10 60 0 82 9 128 20 110 4 -6 5 -180 2 -386 -2 -206 -1 -386 2 -400 15 -58 24 -1 31 203 4 120 10 245 12 278 2 33 3 95 4 137 0 43 4 80 10 83 5 4 9 -16 9 -48 0 -29 4 -78 9 -108 6 -30 12 -147 14 -262 2 -114 7 -211 11 -215 10 -10 36 27 36 51 0 35 25 1 40 -53 8 -28 20 -56 27 -62 7 -6 13 -17 13 -26 0 -8 11 -49 25 -91 13 -42 27 -93 30 -113 4 -29 9 -36 22 -31 25 10 43 -25 43 -83 l0 -53 48 -6 c124 -16 95 -41 -65 -57 -172 -17 -342 8 -327 47 4 9 -4 15 -23 17 -27 3 -28 6 -39 78 l-10 75 -18 -60 c-10 -33 -31 -98 -46 -145 -28 -83 -38 -183 -21 -205 11 -14 77 -266 90 -345 22 -133 31 -357 31 -798 0 -726 -19 -970 -92 -1185 -29 -85 -26 -87 90 -87 108 0 115 3 126 58 16 82 19 90 37 95 38 10 44 54 48 316 0 63 4 112 7 108 4 -3 6 -44 5 -91 -1 -79 9 -116 23 -80 3 8 14 14 23 12 15 -3 18 6 21 59 2 53 22 95 22 48 0 -29 25 -95 35 -92 13 5 21 118 30 435 4 144 11 264 15 267 7 4 25 -298 36 -623 5 -137 9 -181 18 -172 8 8 11 119 12 378 1 396 1 398 14 364 19 -46 64 -785 58 -944 -6 -134 -4 -138 63 -138 61 0 64 6 40 78 -78 231 -93 427 -92 1207 0 681 6 751 92 1051 36 125 37 189 5 280 -65 186 -86 348 -92 723 -2 168 -6 322 -9 341 -2 19 0 215 5 435 10 463 20 541 105 820 23 76 19 148 -14 250 -64 203 -80 323 -87 655 -3 140 -7 274 -10 298 l-5 43 -102 -3 -102 -3 2 -55 c22 -575 22 -588 44 -574 5 3 9 27 9 54 0 39 18 85 21 53 2 -28 9 -47 23 -62 9 -10 19 -39 22 -64 4 -29 12 -47 20 -47 15 0 20 -16 29 -87 4 -29 10 -53 14 -53 8 0 31 -81 31 -111 0 -11 5 -17 10 -14 6 3 10 16 10 28 0 44 20 0 26 -59 l6 -60 -98 -12 c-101 -12 -326 -17 -336 -6 -4 3 1 13 10 22 14 14 16 33 12 122 -5 95 12 380 25 438 11 45 23 11 30 -81 8 -106 18 -136 34 -95 11 28 31 570 23 631 l-4 37 -137 0 c-76 0 -141 -3 -144 -7z"/>
<path d="M5170 5766 c-47 -29 -139 -85 -205 -125 -735 -447 -1313 -894 -1565 -1211 -249 -312 -462 -711 -375 -702 64 6 327 120 480 207 131 74 322 200 382 251 12 11 46 38 76 62 129 102 462 467 707 776 13 17 65 83 115 146 91 114 232 300 393 517 102 137 101 145 -8 79z"/>
<path d="M4090 3913 c-122 -7 -345 -47 -465 -84 -103 -31 -192 -63 -250 -89 -276 -123 -306 -150 -205 -183 156 -52 435 -91 645 -91 239 -1 413 26 835 129 201 50 602 161 700 194 14 5 50 16 81 26 135 39 99 48 -336 75 -88 6 -170 13 -182 15 -26 6 -741 13 -823 8z"/>
<path d="M3878 3353 l-148 -4 0 -42 c-1 -246 -40 -569 -90 -745 -26 -93 -28 -92 94 -92 121 0 126 3 126 82 0 47 4 60 18 65 22 8 32 23 32 48 0 11 7 34 16 50 12 22 18 80 25 230 12 253 14 261 24 90 7 -124 22 -167 24 -69 1 18 10 39 22 50 13 12 18 25 15 40 -7 26 2 56 14 49 5 -3 12 -31 16 -62 13 -105 31 -27 35 152 l4 160 -40 1 c-22 0 -106 -1 -187 -3z"/>
</g>
</g>
</svg>